Coordinates
version=1
nRows=32
nColumns=22
inDegrees=yes

Units are S.I. units (second, meters, Newtons, ...)
If the header above contains a line with 'inDegrees', this indicates whether rotational values are in degrees (yes) or radians (no).

endheader
time	pelvis_tilt	pelvis_list	pelvis_rotation	pelvis_tx	pelvis_ty	pelvis_tz	hip_flexion_r	hip_adduction_r	hip_rotation_r	knee_angle_r	ankle_angle_r	subtalar_angle_r	hip_flexion_l	hip_adduction_l	hip_rotation_l	knee_angle_l	ankle_angle_l	subtalar_angle_l	lumbar_extension	lumbar_bending	lumbar_rotation
      2.70000000	     -2.30526311	      0.84643240	    -37.58708962	     -0.15119989	      0.97687832	     -0.16541630	    -11.55968161	      5.44618472	      7.92491987	    -19.20064110	     15.21695416	      3.16146573	     25.90792169	     -3.19237132	      0.45458150	    -14.30464203	      2.94069335	      6.65655701	     -1.95056210	     -2.98105995	      3.47930463
      2.71000000	     -2.12643999	      1.20845225	    -38.11708644	     -0.14140448	      0.97771546	     -0.15872082	    -11.58874639	      4.85691086	      8.08071935	    -20.15269256	     14.22726607	      4.37413116	     25.96532978	     -2.91966380	      0.12050637	    -15.67107055	      2.38174927	      6.42497135	     -1.71424661	     -3.56867430	      3.52347152
      2.72000000	     -1.93140355	      1.53556804	    -38.65850752	     -0.13167945	      0.97878546	     -0.15199296	    -11.49385746	      4.29452228	      8.11419558	    -21.33117405	     13.07387945	      5.65332172	     25.93170829	     -2.68571420	     -0.25023772	    -16.94557517	      1.98545901	      6.29557483	     -1.52193293	     -4.13842160	      3.58649561
      2.73000000	     -1.72427611	      1.82378184	    -39.21047173	     -0.12205076	      0.98004644	     -0.14528691	    -11.25728139	      3.75881963	      7.99184290	    -22.75488320	     11.75685890	      6.92301393	     25.78580274	     -2.48646625	     -0.65841297	    -18.07669708	      1.74814249	      6.20263241	     -1.37848800	     -4.67671258	      3.65260959
      2.74000000	     -1.51467186	      2.08142616	    -39.77261816	     -0.11253099	      0.98145117	     -0.13865384	    -10.85569715	      3.23876302	      7.68671882	    -24.42514792	     10.26518204	      8.10783805	     25.51943602	     -2.30790381	     -1.09138967	    -19.01750398	      1.64963144	      6.06224508	     -1.27213015	     -5.17930529	      3.72212577
      2.75000000	     -1.31097423	      2.31854504	    -40.34505240	     -0.10313882	      0.98294392	     -0.13215795	    -10.26621611	      2.71757581	      7.18066242	    -26.34150263	      8.60607005	      9.12975052	     25.13797509	     -2.13378925	     -1.54371129	    -19.74600472	      1.67503352	      5.79801463	     -1.19386133	     -5.64190948	      3.78115726
      2.76000000	     -1.11844975	      2.54608461	    -40.92546388	     -0.09388818	      0.98446912	     -0.12584426	     -9.47777862	      2.17635009	      6.47555292	    -28.48572788	      6.79854253	      9.90112988	     24.65607389	     -1.94597818	     -1.99917933	    -20.26204934	      1.79934744	      5.35603554	     -1.13487748	     -6.06593109	      3.82286576
      2.77000000	     -0.92979332	      2.78627243	    -41.50876533	     -0.08480462	      0.98595809	     -0.11975682	     -8.47997845	      1.57754641	      5.56525786	    -30.84676014	      4.94404225	     10.31350266	     24.10515346	     -1.71973498	     -2.49530404	    -20.59494025	      2.00320596	      4.78266545	     -1.09220273	     -6.47237008	      3.82198778
      2.78000000	     -0.74800357	      3.03704614	    -42.07971528	     -0.07589456	      0.98737583	     -0.11392766	     -7.29362107	      0.92038225	      4.50388590	    -33.37179183	      3.10185968	     10.39451358	     23.50110167	     -1.44442473	     -2.96284580	    -20.76176075	      2.25628047	      4.00447534	     -1.06942402	     -6.85673976	      3.76680122
      2.79000000	     -0.56464479	      3.29922646	    -42.63324437	     -0.06717273	      0.98869994	     -0.10835552	     -5.94746608	      0.19960471	      3.35128644	    -36.01167674	      1.40302917	     10.11125227	     22.85753942	     -1.11466112	     -3.39153681	    -20.79247472	      2.53220491	      3.08319407	     -1.07594008	     -7.22626678	      3.64578643
      2.80000000	     -0.36109359	      3.58195339	    -43.15808043	     -0.05864423	      0.98989831	     -0.10302478	     -4.47690872	     -0.60258704	      2.14336056	    -38.71691885	      0.06462548	      9.58963361	     22.20720183	     -0.72273231	     -3.83142297	    -20.75658112	      2.83110672	      2.16277183	     -1.11969992	     -7.60542323	      3.43405713
      2.81000000	     -0.14496056	      3.86072982	    -43.66128504	     -0.05031224	      0.99100221	     -0.09787938	     -2.92618752	     -1.44110351	      0.97578088	    -41.41989065	     -0.85340307	      8.91415773	     21.53901873	     -0.29694637	     -4.23165894	    -20.65826307	      3.14319137	      1.25335516	     -1.20693346	     -7.96998061	      3.15778919
      2.82000000	      0.08387881	      4.13001825	    -44.14739077	     -0.04217579	      0.99202383	     -0.09284735	     -1.32774860	     -2.28548122	     -0.08658067	    -44.06584960	     -1.28069379	      8.16517613	     20.86507827	      0.14519588	     -4.60355624	    -20.53559893	      3.46417385	      0.41481621	     -1.33234703	     -8.31955919	      2.81674603
      2.83000000	      0.31701393	      4.37435694	    -44.62570115	     -0.03423564	      0.99299463	     -0.08784682	      0.29012430	     -3.08971828	     -0.99870022	    -46.60450353	     -1.24055739	      7.40214633	     20.18577732	      0.57333976	     -4.95495546	    -20.40674743	      3.80273642	     -0.29860436	     -1.49047431	     -8.63791445	      2.42360752
      2.84000000	      0.54298479	      4.57215983	    -45.10464968	     -0.02650507	      0.99394649	     -0.08281925	      1.90606360	     -3.80628017	     -1.74664150	    -48.99838882	     -0.80788307	      6.64336159	     19.50158803	      0.95318483	     -5.28652597	    -20.29567061	      4.16333891	     -0.86589448	     -1.67831078	     -8.90575152	      2.01426423
      2.85000000	      0.75321696	      4.71334545	    -45.59481329	     -0.01897857	      0.99491482	     -0.07769585	      3.49907788	     -4.39279325	     -2.30335290	    -51.20488633	     -0.06287884	      5.94909729	     18.80329513	      1.26514230	     -5.60368802	    -20.19888186	      4.54395813	     -1.24878326	     -1.88866424	     -9.10909383	      1.59345119
      2.86000000	      0.90947712	      4.77808068	    -46.09719790	     -0.01168708	      0.99590555	     -0.07244165	      5.07514323	     -4.79125965	     -2.70204688	    -53.19297573	      0.76442696	      5.14195201	     18.10677795	      1.45825274	     -5.94406258	    -20.12469796	      4.95953213	     -1.59333726	     -2.10129131	     -9.20782387	      1.14844662
      2.87000000	      1.05083511	      4.78025560	    -46.62724383	     -0.00461011	      0.99696600	     -0.06705911	      6.60569675	     -5.04435507	     -2.95283900	    -54.95305144	      1.71908133	      4.55372210	     17.36675966	      1.57835442	     -6.29452711	    -20.02766962	      5.35290620	     -1.73239631	     -2.32968413	     -9.24584152	      0.74054613
      2.88000000	      1.14468194	      4.72401912	    -47.17697719	      0.00224802	      0.99804225	     -0.06159957	      8.11943101	     -5.14429078	     -3.12561707	    -56.47864880	      2.58799110	      3.92783310	     16.62857298	      1.60408741	     -6.69365487	    -19.94481197	      5.77718700	     -1.82788913	     -2.55098508	     -9.19929770	      0.36782248
      2.89000000	      1.21061172	      4.61280676	    -47.74345138	      0.00893600	      0.99915699	     -0.05607434	      9.58713847	     -5.11738388	     -3.24218467	    -57.75586666	      3.38271270	      3.38146742	     15.85363320	      1.56344285	     -7.13161102	    -19.83123470	      6.20920743	     -1.86113404	     -2.77319940	     -9.08280206	      0.02592310
      2.90000000	      1.24934470	      4.47375802	    -48.32698507	      0.01547916	      1.00028919	     -0.05049456	     11.02060432	     -5.00566813	     -3.34429570	    -58.77909352	      4.08453733	      2.90536586	     15.03980809	      1.48179799	     -7.62350726	    -19.64451190	      6.65010366	     -1.84995822	     -2.97431229	     -8.92084445	     -0.28654325
      2.91000000	      1.27647978	      4.31157086	    -48.92891586	      0.02187818	      1.00142289	     -0.04490020	     12.41118372	     -4.83415615	     -3.43739342	    -59.56082213	      4.72958496	      2.53978431	     14.18499121	      1.37981899	     -8.16527058	    -19.39510994	      7.07170284	     -1.81244800	     -3.16676121	     -8.72681902	     -0.55237148
      2.92000000	      1.29103439	      4.14013642	    -49.54120879	      0.02815045	      1.00253012	     -0.03930397	     13.76339504	     -4.62527102	     -3.54301312	    -60.10351398	      5.33682405	      2.27243448	     13.29619640	      1.27072836	     -8.76298483	    -19.07299384	      7.48557863	     -1.75878080	     -3.34241053	     -8.51287473	     -0.78549099
      2.93000000	      1.29085280	      3.96819275	    -50.15056971	      0.03433806	      1.00358997	     -0.03371223	     15.07651318	     -4.39671352	     -3.68164186	    -60.41071984	      5.92053793	      2.10366686	     12.37936455	      1.16485266	     -9.40367861	    -18.67393195	      7.89476593	     -1.68454968	     -3.49486822	     -8.28195305	     -0.99333704
      2.94000000	      1.27761625	      3.79765831	    -50.74648195	      0.04043763	      1.00458289	     -0.02813548	     16.34763852	     -4.15410532	     -3.85297916	    -60.49387623	      6.49674827	      2.04697047	     11.44862653	      1.06536485	    -10.07455315	    -18.22178896	      8.29691325	     -1.59830159	     -3.63159682	     -8.03803381	     -1.20607392
      2.95000000	      1.24922483	      3.63525087	    -51.32384663	      0.04649315	      1.00550036	     -0.02256759	     17.57476629	     -3.91515989	     -4.07063529	    -60.35450566	      7.05555306	      2.12029750	     10.50862629	      0.97841091	    -10.76410899	    -17.71225930	      8.69679617	     -1.46781964	     -3.74605027	     -7.78285871	     -1.39719894
      2.96000000	      1.20878738	      3.48082835	    -51.86644700	      0.05250103	      1.00632539	     -0.01701146	     18.75403813	     -3.68587358	     -4.33525490	    -60.00964000	      7.59748726	      2.32188335	      9.57529993	      0.90499739	    -11.44160521	    -17.17825236	      9.08932672	     -1.30527555	     -3.84767921	     -7.52212614	     -1.61217966
      2.97000000	      1.15822961	      3.33770305	    -52.37085094	      0.05848416	      1.00705043	     -0.01147056	     19.88488938	     -3.47593005	     -4.64193868	    -59.46880297	      8.10925188	      2.64875579	      8.64900170	      0.85340366	    -12.05973499	    -16.61820771	      9.46954569	     -1.09577258	     -3.93795658	     -7.25789694	     -1.84988477
      2.98000000	      1.09861893	      3.21489080	    -52.81791425	      0.06446377	      1.00764796	     -0.00596933	     20.97100696	     -3.30647047	     -5.01422088	    -58.74281814	      8.58483279	      2.96864152	      7.75248884	      0.82825742	    -12.61622330	    -16.05646003	      9.82532015	     -0.90517976	     -4.01774986	     -6.99662253	     -2.12925880
      2.99000000	      1.03608814	      3.10499847	    -53.21402420	      0.07044324	      1.00811676	     -0.00049191	     22.00339959	     -3.18135900	     -5.45102941	    -57.84246106	      9.00866841	      3.20686185	      6.88331870	      0.82309523	    -13.14651261	    -15.51085200	     10.15779374	     -0.76635569	     -4.09661462	     -6.73854789	     -2.43835320
      3.00000000	      0.97638916	      3.00699735	    -53.56341879	      0.07641373	      1.00846379	      0.00497714	     22.97993710	     -3.09724057	     -5.92786306	    -56.78190168	      9.37432795	      3.40362398	      6.01901989	      0.84853736	    -13.58199282	    -14.94731240	     10.45684054	     -0.63695650	     -4.17945194	     -6.48894014	     -2.78309644
      3.01000000	      0.90832791	      2.95756963	    -53.87046630	      0.08236988	      1.00861749	      0.01044451	     23.94184019	     -3.06495095	     -6.43669430	    -55.57472258	      9.71401100	      3.48334089	      5.20063987	      0.91484062	    -13.93529135	    -14.37094055	     10.72075332	     -0.58154678	     -4.22000779	     -6.26460492	     -3.13677744
